<?xml version="1.0" encoding="UTF-8"?>
<svg width="52px" height="26px" viewBox="0 0 52 26" version="1.1" xmlns="http://www.w3.org/2000/svg" xmlns:xlink="http://www.w3.org/1999/xlink">
    <title>Full Logo- Dark/W Logo</title>
    <g id="Full-Logo--Dark/W-Logo" stroke="none" stroke-width="1" fill="none" fill-rule="evenodd">
        <g id="Group-2" fill="#FFFFFF">
            <g id="Logo">
                <g fill-rule="nonzero">
                    <path d="M39.8158775,12.9909755 L34.6975003,7.86188232 L37.2553552,2.73457106 L45.5717179,11.0683452 C46.6313388,12.1301846 46.6313388,13.8517664 45.5717179,14.9136059 L35.3358527,25.1709013 C34.2762317,26.2327407 32.5582467,26.2327407 31.4986258,25.1709013 C30.4390048,24.1090619 30.4390048,22.38748 31.4986258,21.3256406 L39.8158775,12.9909755 Z" id="Combined-Shape" opacity="0.56"></path>
                    <path d="M31.500533,0.800996807 C32.560154,-0.260842615 34.2785836,-0.260397129 35.3382045,0.801442293 L37.2572625,2.72451813 L14.8678078,25.1608484 C13.8081869,26.2226878 12.0897573,26.2222423 11.0301363,25.1604029 L9.11107833,23.237327 L31.500533,0.800996807 Z M21.9047984,7.85272036 L18.0666824,11.698872 L12.9483052,6.56977883 L6.55055609,12.9809226 L11.6689332,18.1100158 L9.11107833,23.237327 L0.794715716,14.9035529 C-0.264905239,13.8417135 -0.264905239,12.1201317 0.794715716,11.0582922 L11.0301363,0.801442293 C12.0897573,-0.260397129 13.8081869,-0.260842615 14.8678078,0.800996807 L21.9047984,7.85272036 Z" id="Main"></path>
                </g>
            </g>
        </g>
    </g>
</svg>
